<?xml version="1.0" standalone="no"?>
<svg xmlns="http://www.w3.org/2000/svg" xmlns:xlink="http://www.w3.org/1999/xlink" width="638pt" height="467pt" viewBox="0.00 0.00 638.25 467.20">
<g id="graph0" class="graph" transform="translate(64.73319349542172,377.0161996666776) scale(0.7189682664234793)" data-name="Tree">

<polygon fill="white" stroke="none" points="-4,4 -4,-463.2 634.25,-463.2 634.25,4 -4,4" style=""/>
<!-- 0 -->
<g id="node1" class="node" pointer-events="visible" data-name="0">

<path fill="#dcdbfa" stroke="black" d="M453.38,-459.2C453.38,-459.2 333.87,-459.2 333.87,-459.2 327.87,-459.2 321.87,-453.2 321.87,-447.2 321.87,-447.2 321.87,-379.2 321.87,-379.2 321.87,-373.2 327.87,-367.2 333.87,-367.2 333.87,-367.2 453.38,-367.2 453.38,-367.2 459.38,-367.2 465.38,-373.2 465.38,-379.2 465.38,-379.2 465.38,-447.2 465.38,-447.2 465.38,-453.2 459.38,-459.2 453.38,-459.2" style=""/>
<text text-anchor="middle" x="393.63" y="-442.6" font-family="Helvetica,sans-Serif" font-size="14.00" style="">age &lt;= 30.5</text>
<text text-anchor="middle" x="393.63" y="-425.8" font-family="Helvetica,sans-Serif" font-size="14.00" style="">gini = 0.765</text>
<text text-anchor="middle" x="393.63" y="-409" font-family="Helvetica,sans-Serif" font-size="14.00" style="">samples = 14</text>
<text text-anchor="middle" x="393.63" y="-392.2" font-family="Helvetica,sans-Serif" font-size="14.00" style="">value = [2, 3, 2, 5, 2]</text>
<text text-anchor="middle" x="393.63" y="-375.4" font-family="Helvetica,sans-Serif" font-size="14.00" style="">class = Drama</text>
</g>
<!-- 1 -->
<g id="node2" class="node" pointer-events="visible" data-name="1">

<path fill="#ecfbe3" stroke="black" d="M373.38,-331.2C373.38,-331.2 253.87,-331.2 253.87,-331.2 247.87,-331.2 241.87,-325.2 241.87,-319.2 241.87,-319.2 241.87,-251.2 241.87,-251.2 241.87,-245.2 247.87,-239.2 253.87,-239.2 253.87,-239.2 373.38,-239.2 373.38,-239.2 379.38,-239.2 385.38,-245.2 385.38,-251.2 385.38,-251.2 385.38,-319.2 385.38,-319.2 385.38,-325.2 379.38,-331.2 373.38,-331.2" style=""/>
<text text-anchor="middle" x="313.63" y="-314.6" font-family="Helvetica,sans-Serif" font-size="14.00" style="">age &lt;= 25.5</text>
<text text-anchor="middle" x="313.63" y="-297.8" font-family="Helvetica,sans-Serif" font-size="14.00" style="">gini = 0.741</text>
<text text-anchor="middle" x="313.63" y="-281" font-family="Helvetica,sans-Serif" font-size="14.00" style="">samples = 9</text>
<text text-anchor="middle" x="313.63" y="-264.2" font-family="Helvetica,sans-Serif" font-size="14.00" style="">value = [2, 3, 2, 0, 2]</text>
<text text-anchor="middle" x="313.63" y="-247.4" font-family="Helvetica,sans-Serif" font-size="14.00" style="">class = Comedy</text>
</g>
<!-- 0&#45;&gt;1 -->
<g id="edge1" class="edge" data-name="0-&gt;1">

<path fill="none" stroke="black" d="M364.74,-366.71C359.48,-358.41 353.93,-349.68 348.51,-341.14" style=""/>
<polygon fill="black" stroke="black" points="351.59,-339.47 343.28,-332.9 345.68,-343.22 351.59,-339.47" style=""/>
<text text-anchor="middle" x="337.02" y="-351.82" font-family="Helvetica,sans-Serif" font-size="14.00" style="">True</text>
</g>
<!-- 8 -->
<g id="node9" class="node" pointer-events="visible" data-name="8">

<path fill="#3c39e5" stroke="black" d="M534.38,-322.9C534.38,-322.9 414.87,-322.9 414.87,-322.9 408.87,-322.9 402.87,-316.9 402.87,-310.9 402.87,-310.9 402.87,-259.5 402.87,-259.5 402.87,-253.5 408.87,-247.5 414.87,-247.5 414.87,-247.5 534.38,-247.5 534.38,-247.5 540.38,-247.5 546.38,-253.5 546.38,-259.5 546.38,-259.5 546.38,-310.9 546.38,-310.9 546.38,-316.9 540.38,-322.9 534.38,-322.9" style=""/>
<text text-anchor="middle" x="474.63" y="-306.2" font-family="Helvetica,sans-Serif" font-size="14.00" style="">gini = 0.0</text>
<text text-anchor="middle" x="474.63" y="-289.4" font-family="Helvetica,sans-Serif" font-size="14.00" style="">samples = 5</text>
<text text-anchor="middle" x="474.63" y="-272.6" font-family="Helvetica,sans-Serif" font-size="14.00" style="">value = [0, 0, 0, 5, 0]</text>
<text text-anchor="middle" x="474.63" y="-255.8" font-family="Helvetica,sans-Serif" font-size="14.00" style="">class = Drama</text>
</g>
<!-- 0&#45;&gt;8 -->
<g id="edge8" class="edge" data-name="0-&gt;8">

<path fill="none" stroke="black" d="M422.87,-366.71C429.95,-355.7 437.53,-343.91 444.64,-332.84" style=""/>
<polygon fill="black" stroke="black" points="447.47,-334.92 449.93,-324.62 441.58,-331.14 447.47,-334.92" style=""/>
<text text-anchor="middle" x="456.06" y="-343.57" font-family="Helvetica,sans-Serif" font-size="14.00" style="">False</text>
</g>
<!-- 2 -->
<g id="node3" class="node" pointer-events="visible" data-name="2">

<path fill="#d3f6bd" stroke="black" d="M292.38,-203.2C292.38,-203.2 172.87,-203.2 172.87,-203.2 166.87,-203.2 160.87,-197.2 160.87,-191.2 160.87,-191.2 160.87,-123.2 160.87,-123.2 160.87,-117.2 166.87,-111.2 172.87,-111.2 172.87,-111.2 292.38,-111.2 292.38,-111.2 298.38,-111.2 304.38,-117.2 304.38,-123.2 304.38,-123.2 304.38,-191.2 304.38,-191.2 304.38,-197.2 298.38,-203.2 292.38,-203.2" style=""/>
<text text-anchor="middle" x="232.63" y="-186.6" font-family="Helvetica,sans-Serif" font-size="14.00" style="">gender &lt;= 0.5</text>
<text text-anchor="middle" x="232.63" y="-169.8" font-family="Helvetica,sans-Serif" font-size="14.00" style="">gini = 0.48</text>
<text text-anchor="middle" x="232.63" y="-153" font-family="Helvetica,sans-Serif" font-size="14.00" style="">samples = 5</text>
<text text-anchor="middle" x="232.63" y="-136.2" font-family="Helvetica,sans-Serif" font-size="14.00" style="">value = [2, 3, 0, 0, 0]</text>
<text text-anchor="middle" x="232.63" y="-119.4" font-family="Helvetica,sans-Serif" font-size="14.00" style="">class = Comedy</text>
</g>
<!-- 1&#45;&gt;2 -->
<g id="edge2" class="edge" data-name="1-&gt;2">

<path fill="none" stroke="black" d="M284.38,-238.71C279.05,-230.41 273.43,-221.68 267.94,-213.14" style=""/>
<polygon fill="black" stroke="black" points="271,-211.41 262.64,-204.9 265.11,-215.2 271,-211.41" style=""/>
</g>
<!-- 5 -->
<g id="node6" class="node" pointer-events="visible" data-name="5">

<path fill="#ffffff" stroke="black" d="M457.23,-203.2C457.23,-203.2 334.02,-203.2 334.02,-203.2 328.02,-203.2 322.02,-197.2 322.02,-191.2 322.02,-191.2 322.02,-123.2 322.02,-123.2 322.02,-117.2 328.02,-111.2 334.02,-111.2 334.02,-111.2 457.23,-111.2 457.23,-111.2 463.23,-111.2 469.23,-117.2 469.23,-123.2 469.23,-123.2 469.23,-191.2 469.23,-191.2 469.23,-197.2 463.23,-203.2 457.23,-203.2" style=""/>
<text text-anchor="middle" x="395.63" y="-186.6" font-family="Helvetica,sans-Serif" font-size="14.00" style="">gender &lt;= 0.5</text>
<text text-anchor="middle" x="395.63" y="-169.8" font-family="Helvetica,sans-Serif" font-size="14.00" style="">gini = 0.5</text>
<text text-anchor="middle" x="395.63" y="-153" font-family="Helvetica,sans-Serif" font-size="14.00" style="">samples = 4</text>
<text text-anchor="middle" x="395.63" y="-136.2" font-family="Helvetica,sans-Serif" font-size="14.00" style="">value = [0, 0, 2, 0, 2]</text>
<text text-anchor="middle" x="395.63" y="-119.4" font-family="Helvetica,sans-Serif" font-size="14.00" style="">class = Documentary</text>
</g>
<!-- 1&#45;&gt;5 -->
<g id="edge5" class="edge" data-name="1-&gt;5">

<path fill="none" stroke="black" d="M343.23,-238.71C348.63,-230.41 354.32,-221.68 359.87,-213.14" style=""/>
<polygon fill="black" stroke="black" points="362.72,-215.18 365.24,-204.89 356.85,-211.36 362.72,-215.18" style=""/>
</g>
<!-- 3 -->
<g id="node4" class="node" pointer-events="visible" data-name="3">

<path fill="#7be539" stroke="black" d="M131.38,-75.3C131.38,-75.3 11.87,-75.3 11.87,-75.3 5.87,-75.3 -0.13,-69.3 -0.13,-63.3 -0.13,-63.3 -0.13,-11.9 -0.13,-11.9 -0.13,-5.9 5.87,0.1 11.87,0.1 11.87,0.1 131.38,0.1 131.38,0.1 137.38,0.1 143.38,-5.9 143.38,-11.9 143.38,-11.9 143.38,-63.3 143.38,-63.3 143.38,-69.3 137.38,-75.3 131.38,-75.3" style=""/>
<text text-anchor="middle" x="71.63" y="-58.6" font-family="Helvetica,sans-Serif" font-size="14.00" style="">gini = 0.0</text>
<text text-anchor="middle" x="71.63" y="-41.8" font-family="Helvetica,sans-Serif" font-size="14.00" style="">samples = 3</text>
<text text-anchor="middle" x="71.63" y="-25" font-family="Helvetica,sans-Serif" font-size="14.00" style="">value = [0, 3, 0, 0, 0]</text>
<text text-anchor="middle" x="71.63" y="-8.2" font-family="Helvetica,sans-Serif" font-size="14.00" style="">class = Comedy</text>
</g>
<!-- 2&#45;&gt;3 -->
<g id="edge3" class="edge" data-name="2-&gt;3">

<path fill="none" stroke="black" d="M170.38,-110.73C157.63,-101.42 144.24,-91.64 131.58,-82.39" style=""/>
<polygon fill="black" stroke="black" points="133.87,-79.73 123.73,-76.66 129.74,-85.38 133.87,-79.73" style=""/>
</g>
<!-- 4 -->
<g id="node5" class="node" pointer-events="visible" data-name="4">

<path fill="#e58139" stroke="black" d="M292.38,-75.3C292.38,-75.3 172.87,-75.3 172.87,-75.3 166.87,-75.3 160.87,-69.3 160.87,-63.3 160.87,-63.3 160.87,-11.9 160.87,-11.9 160.87,-5.9 166.87,0.1 172.87,0.1 172.87,0.1 292.38,0.1 292.38,0.1 298.38,0.1 304.38,-5.9 304.38,-11.9 304.38,-11.9 304.38,-63.3 304.38,-63.3 304.38,-69.3 298.38,-75.3 292.38,-75.3" style=""/>
<text text-anchor="middle" x="232.63" y="-58.6" font-family="Helvetica,sans-Serif" font-size="14.00" style="">gini = 0.0</text>
<text text-anchor="middle" x="232.63" y="-41.8" font-family="Helvetica,sans-Serif" font-size="14.00" style="">samples = 2</text>
<text text-anchor="middle" x="232.63" y="-25" font-family="Helvetica,sans-Serif" font-size="14.00" style="">value = [2, 0, 0, 0, 0]</text>
<text text-anchor="middle" x="232.63" y="-8.2" font-family="Helvetica,sans-Serif" font-size="14.00" style="">class = Action</text>
</g>
<!-- 2&#45;&gt;4 -->
<g id="edge4" class="edge" data-name="2-&gt;4">

<path fill="none" stroke="black" d="M232.63,-110.73C232.63,-102.92 232.63,-94.77 232.63,-86.88" style=""/>
<polygon fill="black" stroke="black" points="236.13,-87.09 232.63,-77.09 229.13,-87.09 236.13,-87.09" style=""/>
</g>
<!-- 6 -->
<g id="node7" class="node" pointer-events="visible" data-name="6">

<path fill="#39e5c5" stroke="black" d="M457.23,-75.3C457.23,-75.3 334.02,-75.3 334.02,-75.3 328.02,-75.3 322.02,-69.3 322.02,-63.3 322.02,-63.3 322.02,-11.9 322.02,-11.9 322.02,-5.9 328.02,0.1 334.02,0.1 334.02,0.1 457.23,0.1 457.23,0.1 463.23,0.1 469.23,-5.9 469.23,-11.9 469.23,-11.9 469.23,-63.3 469.23,-63.3 469.23,-69.3 463.23,-75.3 457.23,-75.3" style=""/>
<text text-anchor="middle" x="395.63" y="-58.6" font-family="Helvetica,sans-Serif" font-size="14.00" style="">gini = 0.0</text>
<text text-anchor="middle" x="395.63" y="-41.8" font-family="Helvetica,sans-Serif" font-size="14.00" style="">samples = 2</text>
<text text-anchor="middle" x="395.63" y="-25" font-family="Helvetica,sans-Serif" font-size="14.00" style="">value = [0, 0, 2, 0, 0]</text>
<text text-anchor="middle" x="395.63" y="-8.2" font-family="Helvetica,sans-Serif" font-size="14.00" style="">class = Documentary</text>
</g>
<!-- 5&#45;&gt;6 -->
<g id="edge6" class="edge" data-name="5-&gt;6">

<path fill="none" stroke="black" d="M395.63,-110.73C395.63,-102.92 395.63,-94.77 395.63,-86.88" style=""/>
<polygon fill="black" stroke="black" points="399.13,-87.09 395.63,-77.09 392.13,-87.09 399.13,-87.09" style=""/>
</g>
<!-- 7 -->
<g id="node8" class="node" pointer-events="visible" data-name="7">

<path fill="#e539c0" stroke="black" d="M618.38,-75.3C618.38,-75.3 498.87,-75.3 498.87,-75.3 492.87,-75.3 486.87,-69.3 486.87,-63.3 486.87,-63.3 486.87,-11.9 486.87,-11.9 486.87,-5.9 492.87,0.1 498.87,0.1 498.87,0.1 618.38,0.1 618.38,0.1 624.38,0.1 630.38,-5.9 630.38,-11.9 630.38,-11.9 630.38,-63.3 630.38,-63.3 630.38,-69.3 624.38,-75.3 618.38,-75.3" style=""/>
<text text-anchor="middle" x="558.63" y="-58.6" font-family="Helvetica,sans-Serif" font-size="14.00" style="">gini = 0.0</text>
<text text-anchor="middle" x="558.63" y="-41.8" font-family="Helvetica,sans-Serif" font-size="14.00" style="">samples = 2</text>
<text text-anchor="middle" x="558.63" y="-25" font-family="Helvetica,sans-Serif" font-size="14.00" style="">value = [0, 0, 0, 0, 2]</text>
<text text-anchor="middle" x="558.63" y="-8.2" font-family="Helvetica,sans-Serif" font-size="14.00" style="">class = Sci-Fi</text>
</g>
<!-- 5&#45;&gt;7 -->
<g id="edge7" class="edge" data-name="5-&gt;7">

<path fill="none" stroke="black" d="M458.65,-110.73C471.55,-101.42 485.11,-91.64 497.93,-82.39" style=""/>
<polygon fill="black" stroke="black" points="499.82,-85.34 505.88,-76.65 495.73,-79.66 499.82,-85.34" style=""/>
</g>
</g>
</svg>